<svg width="18" height="19" viewBox="0 0 18 19" fill="none" xmlns="http://www.w3.org/2000/svg">
<path d="M3.67753 18.6001C3.08903 18.6001 2.58542 18.4044 2.16669 18.0131C1.74725 17.6211 1.53753 17.1501 1.53753 16.6001V3.6001C1.23436 3.6001 0.980059 3.50443 0.774619 3.3131C0.569893 3.1211 0.467529 2.88343 0.467529 2.6001C0.467529 2.31676 0.569893 2.0791 0.774619 1.8871C0.980059 1.69576 1.23436 1.6001 1.53753 1.6001H5.81753C5.81753 1.31676 5.92025 1.0791 6.12569 0.887098C6.33042 0.695764 6.58436 0.600098 6.88753 0.600098H11.1675C11.4707 0.600098 11.725 0.695764 11.9304 0.887098C12.1352 1.0791 12.2375 1.31676 12.2375 1.6001H16.5175C16.8207 1.6001 17.0746 1.69576 17.2794 1.8871C17.4848 2.0791 17.5875 2.31676 17.5875 2.6001C17.5875 2.88343 17.4848 3.1211 17.2794 3.3131C17.0746 3.50443 16.8207 3.6001 16.5175 3.6001V16.6001C16.5175 17.1501 16.3082 17.6211 15.8894 18.0131C15.47 18.4044 14.966 18.6001 14.3775 18.6001H3.67753ZM3.67753 3.6001V16.6001H14.3775V3.6001H3.67753ZM5.81753 13.6001C5.81753 13.8834 5.92025 14.1208 6.12569 14.3121C6.33042 14.5041 6.58436 14.6001 6.88753 14.6001C7.1907 14.6001 7.445 14.5041 7.65044 14.3121C7.85517 14.1208 7.95753 13.8834 7.95753 13.6001V6.6001C7.95753 6.31676 7.85517 6.0791 7.65044 5.8871C7.445 5.69576 7.1907 5.6001 6.88753 5.6001C6.58436 5.6001 6.33042 5.69576 6.12569 5.8871C5.92025 6.0791 5.81753 6.31676 5.81753 6.6001V13.6001ZM10.0975 13.6001C10.0975 13.8834 10.2002 14.1208 10.4057 14.3121C10.6104 14.5041 10.8644 14.6001 11.1675 14.6001C11.4707 14.6001 11.725 14.5041 11.9304 14.3121C12.1352 14.1208 12.2375 13.8834 12.2375 13.6001V6.6001C12.2375 6.31676 12.1352 6.0791 11.9304 5.8871C11.725 5.69576 11.4707 5.6001 11.1675 5.6001C10.8644 5.6001 10.6104 5.69576 10.4057 5.8871C10.2002 6.0791 10.0975 6.31676 10.0975 6.6001V13.6001ZM3.67753 3.6001V16.6001V3.6001Z" fill="white"/>
</svg>
