<svg width="20" height="18" viewBox="0 0 20 18" fill="none" xmlns="http://www.w3.org/2000/svg">
<path d="M2.3077 17.4999C1.80257 17.4999 1.375 17.3249 1.025 16.9749C0.675 16.6249 0.5 16.1973 0.5 15.6922V5.30765C0.5 4.80252 0.675 4.37495 1.025 4.02495C1.375 3.67495 1.80257 3.49995 2.3077 3.49995H6.5V1.80767C6.5 1.30256 6.675 0.875 7.025 0.525C7.375 0.175 7.80257 0 8.3077 0H11.6923C12.1974 0 12.625 0.175 12.975 0.525C13.325 0.875 13.5 1.30256 13.5 1.80767V3.49995H17.6923C18.1974 3.49995 18.625 3.67495 18.975 4.02495C19.325 4.37495 19.5 4.80252 19.5 5.30765V15.6922C19.5 16.1973 19.325 16.6249 18.975 16.9749C18.625 17.3249 18.1974 17.4999 17.6923 17.4999H2.3077ZM2.3077 15.9999H17.6923C17.7692 15.9999 17.8397 15.9679 17.9038 15.9038C17.9679 15.8397 18 15.7691 18 15.6922V5.30765C18 5.23072 17.9679 5.16019 17.9038 5.09608C17.8397 5.03198 17.7692 4.99993 17.6923 4.99993H2.3077C2.23077 4.99993 2.16024 5.03198 2.09613 5.09608C2.03203 5.16019 1.99998 5.23072 1.99998 5.30765V15.6922C1.99998 15.7691 2.03203 15.8397 2.09613 15.9038C2.16024 15.9679 2.23077 15.9999 2.3077 15.9999ZM7.99998 3.49995H12V1.80767C12 1.73074 11.9679 1.66022 11.9038 1.59612C11.8397 1.53201 11.7692 1.49995 11.6923 1.49995H8.3077C8.23077 1.49995 8.16024 1.53201 8.09613 1.59612C8.03203 1.66022 7.99998 1.73074 7.99998 1.80767V3.49995Z" fill="#1DA1F2"/>
</svg>
